<svg width="118" height="38" viewBox="0 0 118 38" fill="none" xmlns="http://www.w3.org/2000/svg">
<path fill-rule="evenodd" clip-rule="evenodd" d="M8.37022 3.604C7.26022 8.224 2.36022 29.344 5.97022 32.864C7.88022 33.574 22.8502 34.484 24.5502 33.014C29.5402 28.674 28.2802 12.484 28.0002 6.464C30.9902 13.194 32.4202 29.494 26.8302 35.314C23.9502 38.304 8.38022 37.864 4.95022 36.994C-4.13978 34.674 1.84022 8.094 3.03022 2.284C3.39022 0.814 4.88022 -0.0959993 6.36022 0.274C7.83022 0.634 8.73022 2.124 8.37022 3.604Z" fill="white"/>
<path d="M46.9198 8.444H39.7998V6.804H48.7698V8.374L41.1698 21.874H49.5498V23.494H39.3398V21.924L46.9198 8.444ZM50.4798 23.494H48.7998L55.0998 6.804H57.0198L63.2998 23.494H61.5898L59.6498 18.264H52.4198L50.4798 23.494ZM59.0898 16.754L56.0098 8.374L52.9798 16.754H59.0898ZM69.2198 17.364V23.494H67.6398V17.344L62.4598 6.804H64.2898L68.4398 15.474L72.6298 6.804H74.3998L69.2198 17.364ZM77.0098 18.344V23.494H75.4298V6.804H77.0098V16.074L84.5198 6.804H86.4198L79.8598 14.874L86.2998 23.494H84.3398L78.8298 16.104L77.0098 18.344ZM88.5698 15.074C88.5698 17.114 89.2098 18.814 90.4998 20.194C91.7798 21.564 93.3698 22.254 95.2598 22.254C97.0998 22.254 98.6598 21.554 99.9299 20.164C101.2 18.774 101.84 17.064 101.84 15.024C101.84 13.134 101.18 11.494 99.8699 10.124C98.5698 8.754 96.9898 8.074 95.1398 8.074C94.3898 8.074 93.6698 8.204 92.9798 8.464C92.2798 8.724 91.6398 9.114 91.0498 9.624C90.2798 10.304 89.6698 11.124 89.2298 12.094C88.7898 13.064 88.5698 14.054 88.5698 15.074ZM86.8998 15.044C86.8998 13.884 87.1198 12.774 87.5498 11.724C87.9898 10.664 88.6198 9.724 89.4398 8.894C90.2398 8.094 91.1098 7.484 92.0698 7.084C93.0198 6.674 94.0598 6.474 95.1698 6.474C96.3098 6.474 97.3598 6.674 98.3298 7.084C99.2998 7.494 100.19 8.104 100.99 8.914C101.82 9.744 102.44 10.684 102.86 11.714C103.27 12.744 103.48 13.854 103.48 15.044C103.48 16.234 103.3 17.314 102.94 18.304C102.59 19.294 102.05 20.194 101.34 21.004C100.51 21.934 99.5798 22.644 98.5398 23.114C97.4998 23.584 96.3698 23.824 95.1498 23.824C92.8198 23.824 90.8598 22.984 89.2698 21.294C87.6898 19.614 86.8998 17.524 86.8998 15.044ZM103.74 6.804H105.33L110.47 21.034L115.63 6.804H117.23L111.11 23.494H109.86L103.74 6.804Z" fill="white"/>
<path d="M44.6397 36.544H40.6797V28.394H41.4697V35.754H44.6397V36.544ZM45.1197 36.544H44.2897L47.3897 28.394H48.3397L51.4297 36.544H50.5897L49.6297 33.984H46.0797L45.1197 36.544ZM49.3597 33.254L47.8397 29.164L46.3497 33.254H49.3597ZM52.7797 32.694V35.764H53.8797C54.5297 35.764 55.0097 35.644 55.3197 35.394C55.6297 35.144 55.7797 34.754 55.7797 34.234C55.7797 33.714 55.6297 33.334 55.3097 33.074C54.9997 32.824 54.5197 32.694 53.8797 32.694H52.7797ZM52.7797 29.174V31.914H53.2497C54.0297 31.914 54.5697 31.804 54.8797 31.584C55.1897 31.374 55.3397 31.014 55.3397 30.514C55.3397 30.054 55.1897 29.714 54.8897 29.494C54.5897 29.284 54.1097 29.174 53.4597 29.174H52.7797ZM52.0297 28.394H53.5197C54.4197 28.394 55.0797 28.574 55.5097 28.914C55.9297 29.264 56.1397 29.814 56.1397 30.554C56.1397 30.924 56.0697 31.244 55.9297 31.504C55.7897 31.774 55.5697 31.984 55.2897 32.154C55.7197 32.334 56.0397 32.594 56.2597 32.924C56.4697 33.254 56.5797 33.664 56.5797 34.134C56.5797 34.964 56.3597 35.574 55.9097 35.964C55.4597 36.354 54.7597 36.544 53.7997 36.544H52.0297V28.394Z" fill="white"/>
<path d="M35.1094 6.82397H36.1094V37.714H35.1094V6.82397Z" fill="white"/>
</svg>
