<svg width="64" height="64" viewBox="0 0 64 64" fill="none" xmlns="http://www.w3.org/2000/svg">
<rect x="1" y="1" width="62" height="62" rx="5" stroke="black" stroke-width="2"/>
<path d="M20.8236 8.82302L20.8229 8.82575C20.0486 12.0771 18.0183 20.8437 16.6615 29.7337C15.9835 34.1766 15.4696 38.6757 15.3692 42.5446C15.3191 44.4791 15.3716 46.2756 15.5645 47.8398C15.7558 49.3917 16.0925 50.7791 16.6497 51.8549C17.2196 52.9552 18.2961 53.5166 19.3299 53.7012C22.1364 54.2024 28.1448 54.6799 33.7132 54.7872C36.5033 54.841 39.2156 54.8027 41.3863 54.6229C42.4697 54.5332 43.443 54.4063 44.2342 54.2305C44.9737 54.0662 45.7315 53.8241 46.2212 53.3969L46.2234 53.395C48.2225 51.6409 49.5265 48.8185 50.3938 45.5915C50.8045 44.0637 51.3233 42.9399 51.8207 42.2094C52.0695 41.8439 52.2978 41.5991 52.484 41.4499C52.5834 41.3702 52.6579 41.3278 52.7066 41.3055C52.7398 41.3602 52.7872 41.4582 52.8322 41.622C52.9869 42.1852 53.0261 43.2086 52.7406 44.7817C51.9291 49.2537 50.4464 52.9912 48.1888 55.3625C47.8054 55.7636 47.1407 56.172 46.1622 56.5519C45.1969 56.9265 43.9997 57.2456 42.6259 57.5098C39.8791 58.0379 36.5232 58.3287 33.112 58.4427C29.706 58.5564 26.2734 58.4931 23.3838 58.3216C20.4703 58.1487 18.1791 57.8697 17.0197 57.573C14.2361 56.8555 12.4252 54.2328 11.4247 50.0328C10.4326 45.8679 10.3259 40.471 10.6965 34.8266C11.3713 24.5499 13.6054 13.7289 14.6604 8.6188C14.7609 8.13229 14.8506 7.69755 14.9273 7.31997C15.3349 5.68093 16.9795 4.68362 18.5985 5.09196L18.6032 5.09312C20.2163 5.49168 21.2264 7.15207 20.8236 8.82302Z" fill="white" stroke="black" stroke-width="2"/>
</svg>
